name C:/MyDriveSym/Projects/mobilecap/Data\Session20210820_0002\mocap\ForceDataProcessed\walking2_forces.mot
datacolumns 19
datarows 27
range 0.67950000 0.69250000
endheader 
time	R_ground_force_vx	R_ground_force_vy	R_ground_force_vz	R_ground_force_px	R_ground_force_py	R_ground_force_pz	R_ground_torque_x	R_ground_torque_y	R_ground_torque_z	L_ground_force_vx	L_ground_force_vy	L_ground_force_vz	L_ground_force_px	L_ground_force_py	L_ground_force_pz	L_ground_torque_x	L_ground_torque_y	L_ground_torque_z	
          0.67950000	         -3.67671300	         43.18000100	         -6.32223000	          0.42792400	          0.00600000	         -0.15762700	          0.00000000	          0.09067200	          0.00000000	       -154.35717000	        889.82347100	         38.58848300	          0.87536300	          0.00600000	         -0.27122600	          0.00000000	          0.70643300	          0.00000000	
          0.68000000	         -3.71884100	         42.36797100	         -6.24129400	          0.42816000	          0.00600000	         -0.15763000	          0.00000000	          0.09237300	          0.00000000	       -154.01101300	        890.10327400	         38.73443500	          0.87543100	          0.00600000	         -0.27124300	          0.00000000	          0.71108100	          0.00000000	
          0.68050000	         -3.75195700	         41.55942000	         -6.15692700	          0.42839400	          0.00600000	         -0.15762500	          0.00000000	          0.09394900	          0.00000000	       -153.66046400	        890.36234800	         38.87827200	          0.87549800	          0.00600000	         -0.27125900	          0.00000000	          0.71600700	          0.00000000	
          0.68100000	         -3.77601100	         40.75352300	         -6.06919400	          0.42862500	          0.00600000	         -0.15761300	          0.00000000	          0.09539100	          0.00000000	       -153.30534000	        890.60001800	         39.01945300	          0.87556400	          0.00600000	         -0.27127600	          0.00000000	          0.72113100	          0.00000000	
          0.68150000	         -3.79100600	         39.94949300	         -5.97819600	          0.42885300	          0.00600000	         -0.15759400	          0.00000000	          0.09669300	          0.00000000	       -152.94548700	        890.81560000	         39.15742800	          0.87562900	          0.00600000	         -0.27129200	          0.00000000	          0.72637900	          0.00000000	
          0.68200000	         -3.79701200	         39.14657300	         -5.88408300	          0.42908000	          0.00600000	         -0.15756600	          0.00000000	          0.09785900	          0.00000000	       -152.58079200	        891.00841900	         39.29165700	          0.87569300	          0.00600000	         -0.27130900	          0.00000000	          0.73167900	          0.00000000	
          0.68250000	         -3.79417400	         38.34403500	         -5.78704900	          0.42930700	          0.00600000	         -0.15753100	          0.00000000	          0.09889600	          0.00000000	       -152.21119500	        891.17779600	         39.42162400	          0.87575600	          0.00600000	         -0.27132500	          0.00000000	          0.73697400	          0.00000000	
          0.68300000	         -3.78270800	         37.54121800	         -5.68732000	          0.42953400	          0.00600000	         -0.15748900	          0.00000000	          0.09981200	          0.00000000	       -151.83668500	        891.32305400	         39.54684400	          0.87581900	          0.00600000	         -0.27134000	          0.00000000	          0.74220600	          0.00000000	
          0.68350000	         -3.76289800	         36.73759200	         -5.58514100	          0.42976200	          0.00600000	         -0.15743900	          0.00000000	          0.10062100	          0.00000000	       -151.45728500	        891.44352900	         39.66685900	          0.87588000	          0.00600000	         -0.27135500	          0.00000000	          0.74732400	          0.00000000	
          0.68400000	         -3.73508700	         35.93277900	         -5.48076600	          0.42999300	          0.00600000	         -0.15738100	          0.00000000	          0.10134000	          0.00000000	       -151.07303800	        891.53857700	         39.78123800	          0.87594100	          0.00600000	         -0.27136900	          0.00000000	          0.75227900	          0.00000000	
          0.68450000	         -3.69967800	         35.12654000	         -5.37444800	          0.43022800	          0.00600000	         -0.15731600	          0.00000000	          0.10199100	          0.00000000	       -150.68399800	        891.60758000	         39.88957900	          0.87600100	          0.00600000	         -0.27138300	          0.00000000	          0.75702800	          0.00000000	
          0.68500000	         -3.65713600	         34.31872700	         -5.26642900	          0.43046600	          0.00600000	         -0.15724300	          0.00000000	          0.10259800	          0.00000000	       -150.29022700	        891.64996400	         39.99151800	          0.87606000	          0.00600000	         -0.27139500	          0.00000000	          0.76153900	          0.00000000	
          0.68550000	         -3.60797200	         33.50926400	         -5.15694100	          0.43071000	          0.00600000	         -0.15716200	          0.00000000	          0.10318200	          0.00000000	       -149.89180400	        891.66521500	         40.08671700	          0.87611900	          0.00600000	         -0.27140700	          0.00000000	          0.76578200	          0.00000000	
          0.68600000	         -3.55273900	         32.69814400	         -5.04621000	          0.43096000	          0.00600000	         -0.15707400	          0.00000000	          0.10376200	          0.00000000	       -149.48881600	        891.65289600	         40.17486100	          0.87617600	          0.00600000	         -0.27141800	          0.00000000	          0.76973500	          0.00000000	
          0.68650000	         -3.49201900	         31.88543300	         -4.93445500	          0.43121600	          0.00600000	         -0.15697900	          0.00000000	          0.10434900	          0.00000000	       -149.08135500	        891.61264200	         40.25566100	          0.87623200	          0.00600000	         -0.27142800	          0.00000000	          0.77337800	          0.00000000	
          0.68700000	         -3.42642400	         31.07126800	         -4.82189300	          0.43147900	          0.00600000	         -0.15687600	          0.00000000	          0.10495000	          0.00000000	       -148.66950700	        891.54414700	         40.32885900	          0.87628800	          0.00600000	         -0.27143700	          0.00000000	          0.77669500	          0.00000000	
          0.68750000	         -3.35659800	         30.25583500	         -4.70874400	          0.43174800	          0.00600000	         -0.15676500	          0.00000000	          0.10557100	          0.00000000	       -148.25336000	        891.44715800	         40.39424300	          0.87634200	          0.00600000	         -0.27144500	          0.00000000	          0.77967200	          0.00000000	
          0.68800000	         -3.28321900	         29.43936400	         -4.59523700	          0.43202600	          0.00600000	         -0.15664600	          0.00000000	          0.10621200	          0.00000000	       -147.83298800	        891.32148300	         40.45164500	          0.87639600	          0.00600000	         -0.27145200	          0.00000000	          0.78229300	          0.00000000	
          0.68850000	         -3.20698800	         28.62213600	         -4.48160900	          0.43231200	          0.00600000	         -0.15651900	          0.00000000	          0.10687600	          0.00000000	       -147.40843700	        891.16700100	         40.50093900	          0.87644900	          0.00600000	         -0.27145800	          0.00000000	          0.78454700	          0.00000000	
          0.68900000	         -3.12861100	         27.80448300	         -4.36810200	          0.43260800	          0.00600000	         -0.15638400	          0.00000000	          0.10756800	          0.00000000	       -146.97973700	        890.98367700	         40.54203400	          0.87650000	          0.00600000	         -0.27146300	          0.00000000	          0.78642000	          0.00000000	
          0.68950000	         -3.04879100	         26.98679000	         -4.25494300	          0.43291400	          0.00600000	         -0.15623900	          0.00000000	          0.10829300	          0.00000000	       -146.54691400	        890.77155600	         40.57486600	          0.87655100	          0.00600000	         -0.27146700	          0.00000000	          0.78790500	          0.00000000	
          0.69000000	         -2.96821100	         26.16947600	         -4.14234600	          0.43323200	          0.00600000	         -0.15608500	          0.00000000	          0.10905800	          0.00000000	       -146.11000300	        890.53077400	         40.59940500	          0.87660100	          0.00600000	         -0.27146900	          0.00000000	          0.78899700	          0.00000000	
          0.69050000	         -2.88753400	         25.35298000	         -4.03049700	          0.43356500	          0.00600000	         -0.15592000	          0.00000000	          0.10986900	          0.00000000	       -145.66904800	        890.26156400	         40.61565400	          0.87664900	          0.00600000	         -0.27147100	          0.00000000	          0.78970000	          0.00000000	
          0.69100000	         -2.80738600	         24.53774600	         -3.91955600	          0.43391400	          0.00600000	         -0.15574400	          0.00000000	          0.11072800	          0.00000000	       -145.22410100	        889.96425200	         40.62364900	          0.87669700	          0.00600000	         -0.27147200	          0.00000000	          0.79002100	          0.00000000	
          0.69150000	         -2.72834000	         23.72423800	         -3.80964300	          0.43428300	          0.00600000	         -0.15555700	          0.00000000	          0.11163400	          0.00000000	       -144.77522200	        889.63922700	         40.62345700	          0.87674300	          0.00600000	         -0.27147200	          0.00000000	          0.78998000	          0.00000000	
          0.69200000	         -2.65089800	         22.91297200	         -3.70084100	          0.43467500	          0.00600000	         -0.15535600	          0.00000000	          0.11258700	          0.00000000	       -144.32247400	        889.28694000	         40.61516800	          0.87678800	          0.00600000	         -0.27147000	          0.00000000	          0.78960300	          0.00000000	
          0.69250000	         -2.57548600	         22.10453300	         -3.59319700	          0.43509400	          0.00600000	         -0.15514000	          0.00000000	          0.11358200	          0.00000000	       -143.86591100	        888.90790800	         40.59889400	          0.87683200	          0.00600000	         -0.27146800	          0.00000000	          0.78892000	          0.00000000	
